<mxfile host="65bd71144e">
    <diagram id="9Vf29KUOQ6CvVW8i5toq" name="Page-1">
        <mxGraphModel dx="1037" dy="790" grid="1" gridSize="10" guides="1" tooltips="1" connect="1" arrows="1" fold="1" page="1" pageScale="1" pageWidth="827" pageHeight="1169" math="0" shadow="0">
            <root>
                <mxCell id="0"/>
                <mxCell id="1" parent="0"/>
                <mxCell id="55" value="" style="rounded=0;whiteSpace=wrap;html=1;fillColor=#18141D;" vertex="1" parent="1">
                    <mxGeometry width="400" height="900" as="geometry"/>
                </mxCell>
                <mxCell id="2" value="&lt;pre style=&quot;background-color:#2b2b2b;color:#a9b7c6;font-family:'JetBrains Mono',monospace;font-size:9.8pt;&quot;&gt;&lt;pre style=&quot;font-family: &amp;quot;JetBrains Mono&amp;quot;, monospace; font-size: 9.8pt;&quot;&gt;&lt;span style=&quot;color:#cc7832;&quot;&gt;fun &lt;/span&gt;&lt;span style=&quot;color:#ffc66d;&quot;&gt;recursiveTraversal&lt;/span&gt;(root: Binode?) {&lt;br&gt;    &lt;span style=&quot;color:#cc7832;&quot;&gt;if &lt;/span&gt;(root == &lt;span style=&quot;color:#cc7832;&quot;&gt;null&lt;/span&gt;) {&lt;br&gt;        &lt;span style=&quot;color:#cc7832;&quot;&gt;return&lt;br&gt;&lt;/span&gt;&lt;span style=&quot;color:#cc7832;&quot;&gt;    &lt;/span&gt;}&lt;br&gt;    &lt;span style=&quot;color:#808080;&quot;&gt;//&lt;/span&gt;&lt;span style=&quot;color:#808080;font-family:'Apple Color Emoji';&quot;&gt;1⃣️&lt;br&gt;&lt;/span&gt;&lt;span style=&quot;color:#808080;font-family:'Apple Color Emoji';&quot;&gt;    &lt;/span&gt;recursiveTraversal(&lt;span style=&quot;background-color:#223c23;&quot;&gt;root&lt;/span&gt;.&lt;span style=&quot;color:#9876aa;&quot;&gt;left&lt;/span&gt;)&lt;br&gt;    &lt;span style=&quot;color:#808080;&quot;&gt;//&lt;/span&gt;&lt;span style=&quot;color:#808080;font-family:'Apple Color Emoji';&quot;&gt;2⃣️&lt;br&gt;&lt;/span&gt;&lt;span style=&quot;color:#808080;font-family:'Apple Color Emoji';&quot;&gt;    &lt;/span&gt;recursiveTraversal(&lt;span style=&quot;background-color:#223c23;&quot;&gt;root&lt;/span&gt;.&lt;span style=&quot;color:#9876aa;&quot;&gt;right&lt;/span&gt;)&lt;br&gt;    &lt;span style=&quot;color:#808080;&quot;&gt;//&lt;/span&gt;&lt;span style=&quot;color:#808080;font-family:'Apple Color Emoji';&quot;&gt;3⃣️&lt;br&gt;&lt;/span&gt;}&lt;/pre&gt;&lt;/pre&gt;" style="rounded=0;whiteSpace=wrap;html=1;align=left;" parent="1" vertex="1">
                    <mxGeometry y="270" width="310" height="160" as="geometry"/>
                </mxCell>
                <mxCell id="10" style="edgeStyle=none;html=1;exitX=0;exitY=1;exitDx=0;exitDy=0;entryX=0.5;entryY=0;entryDx=0;entryDy=0;fontColor=#FFFFFF;strokeColor=#FFFFFF;" parent="1" source="3" target="4" edge="1">
                    <mxGeometry relative="1" as="geometry"/>
                </mxCell>
                <mxCell id="11" style="edgeStyle=none;html=1;exitX=1;exitY=1;exitDx=0;exitDy=0;entryX=0.5;entryY=0;entryDx=0;entryDy=0;fontColor=#FFFFFF;strokeColor=#FFFFFF;" parent="1" source="3" target="5" edge="1">
                    <mxGeometry relative="1" as="geometry"/>
                </mxCell>
                <mxCell id="3" value="1" style="ellipse;whiteSpace=wrap;html=1;aspect=fixed;fontSize=20;fontColor=#FFFFFF;fillColor=#18141D;strokeColor=#FFFFFF;" parent="1" vertex="1">
                    <mxGeometry x="137.5" width="55" height="55" as="geometry"/>
                </mxCell>
                <mxCell id="12" style="edgeStyle=none;html=1;exitX=0;exitY=1;exitDx=0;exitDy=0;entryX=0.5;entryY=0;entryDx=0;entryDy=0;fontColor=#FFFFFF;strokeColor=#FFFFFF;" parent="1" source="4" target="6" edge="1">
                    <mxGeometry relative="1" as="geometry"/>
                </mxCell>
                <mxCell id="13" style="edgeStyle=none;html=1;exitX=1;exitY=1;exitDx=0;exitDy=0;entryX=0.5;entryY=0;entryDx=0;entryDy=0;fontColor=#FFFFFF;strokeColor=#FFFFFF;" parent="1" source="4" target="7" edge="1">
                    <mxGeometry relative="1" as="geometry"/>
                </mxCell>
                <mxCell id="4" value="2" style="ellipse;whiteSpace=wrap;html=1;aspect=fixed;fontSize=20;fontColor=#FFFFFF;fillColor=#18141D;strokeColor=#FFFFFF;" parent="1" vertex="1">
                    <mxGeometry x="60" y="70" width="55" height="55" as="geometry"/>
                </mxCell>
                <mxCell id="14" style="edgeStyle=none;html=1;exitX=0;exitY=1;exitDx=0;exitDy=0;entryX=0.5;entryY=0;entryDx=0;entryDy=0;fontColor=#FFFFFF;strokeColor=#FFFFFF;" parent="1" source="5" target="8" edge="1">
                    <mxGeometry relative="1" as="geometry"/>
                </mxCell>
                <mxCell id="16" style="edgeStyle=none;html=1;exitX=1;exitY=1;exitDx=0;exitDy=0;entryX=0.5;entryY=0;entryDx=0;entryDy=0;fontColor=#FFFFFF;strokeColor=#FFFFFF;" parent="1" source="5" target="9" edge="1">
                    <mxGeometry relative="1" as="geometry"/>
                </mxCell>
                <mxCell id="5" value="&lt;font&gt;3&lt;/font&gt;" style="ellipse;whiteSpace=wrap;html=1;aspect=fixed;fontSize=20;fontColor=#FFFFFF;fillColor=#18141D;strokeColor=#FFFFFF;" parent="1" vertex="1">
                    <mxGeometry x="220" y="70" width="55" height="55" as="geometry"/>
                </mxCell>
                <mxCell id="6" value="4" style="ellipse;whiteSpace=wrap;html=1;aspect=fixed;fontSize=20;fontColor=#FFFFFF;fillColor=#18141D;strokeColor=#FFFFFF;" parent="1" vertex="1">
                    <mxGeometry x="20" y="150" width="55" height="55" as="geometry"/>
                </mxCell>
                <mxCell id="7" value="5" style="ellipse;whiteSpace=wrap;html=1;aspect=fixed;fontSize=20;fontColor=#FFFFFF;fillColor=#18141D;strokeColor=#FFFFFF;" parent="1" vertex="1">
                    <mxGeometry x="100" y="150" width="55" height="55" as="geometry"/>
                </mxCell>
                <mxCell id="8" value="6" style="ellipse;whiteSpace=wrap;html=1;aspect=fixed;fontSize=20;fontColor=#FFFFFF;fillColor=#18141D;strokeColor=#FFFFFF;" parent="1" vertex="1">
                    <mxGeometry x="180" y="150" width="55" height="55" as="geometry"/>
                </mxCell>
                <mxCell id="9" value="7" style="ellipse;whiteSpace=wrap;html=1;aspect=fixed;fontSize=20;fontColor=#FFFFFF;fillColor=#18141D;strokeColor=#FFFFFF;" parent="1" vertex="1">
                    <mxGeometry x="260" y="150" width="55" height="55" as="geometry"/>
                </mxCell>
                <mxCell id="17" value="" style="rounded=0;whiteSpace=wrap;html=1;fontSize=20;fontColor=#FFFFFF;fillColor=#18141D;strokeColor=#FFFFFF;" parent="1" vertex="1">
                    <mxGeometry x="340" y="30" width="40" height="850" as="geometry"/>
                </mxCell>
                <mxCell id="18" value="递归序" style="text;html=1;strokeColor=none;fillColor=none;align=center;verticalAlign=middle;whiteSpace=wrap;rounded=0;fontSize=20;fontColor=#FFFFFF;" parent="1" vertex="1">
                    <mxGeometry x="320" width="80" height="30" as="geometry"/>
                </mxCell>
                <mxCell id="19" value="1" style="ellipse;whiteSpace=wrap;html=1;aspect=fixed;fontSize=20;fontColor=#FFFFFF;strokeColor=#FF0000;fillColor=#18141D;" parent="1" vertex="1">
                    <mxGeometry x="340" y="30" width="40" height="40" as="geometry"/>
                </mxCell>
                <mxCell id="20" value="2" style="ellipse;whiteSpace=wrap;html=1;aspect=fixed;fontSize=20;fontColor=#FFFFFF;strokeColor=#FF0000;fillColor=#18141D;" parent="1" vertex="1">
                    <mxGeometry x="340" y="70" width="40" height="40" as="geometry"/>
                </mxCell>
                <mxCell id="21" value="4" style="ellipse;whiteSpace=wrap;html=1;aspect=fixed;fontSize=20;fontColor=#FFFFFF;strokeColor=#FF0000;fillColor=#18141D;" parent="1" vertex="1">
                    <mxGeometry x="340" y="110" width="40" height="40" as="geometry"/>
                </mxCell>
                <mxCell id="22" value="4" style="ellipse;whiteSpace=wrap;html=1;aspect=fixed;fontSize=20;fontColor=#FFFFFF;strokeColor=#80FF00;fillColor=#18141D;" parent="1" vertex="1">
                    <mxGeometry x="340" y="150" width="40" height="40" as="geometry"/>
                </mxCell>
                <mxCell id="23" value="4" style="ellipse;whiteSpace=wrap;html=1;aspect=fixed;fontSize=20;fontColor=#FFFFFF;strokeColor=#007FFF;fillColor=#18141D;" parent="1" vertex="1">
                    <mxGeometry x="340" y="190" width="40" height="40" as="geometry"/>
                </mxCell>
                <mxCell id="24" value="2" style="ellipse;whiteSpace=wrap;html=1;aspect=fixed;fontSize=20;fontColor=#FFFFFF;strokeColor=#80FF00;fillColor=#18141D;" parent="1" vertex="1">
                    <mxGeometry x="340" y="230" width="40" height="40" as="geometry"/>
                </mxCell>
                <mxCell id="25" value="5" style="ellipse;whiteSpace=wrap;html=1;aspect=fixed;fontSize=20;fontColor=#FFFFFF;strokeColor=#FF0000;fillColor=#18141D;" parent="1" vertex="1">
                    <mxGeometry x="340" y="270" width="40" height="40" as="geometry"/>
                </mxCell>
                <mxCell id="26" value="5" style="ellipse;whiteSpace=wrap;html=1;aspect=fixed;fontSize=20;fontColor=#FFFFFF;strokeColor=#80FF00;fillColor=#18141D;" parent="1" vertex="1">
                    <mxGeometry x="340" y="310" width="40" height="40" as="geometry"/>
                </mxCell>
                <mxCell id="27" value="5" style="ellipse;whiteSpace=wrap;html=1;aspect=fixed;fontSize=20;fontColor=#FFFFFF;strokeColor=#007FFF;fillColor=#18141D;" parent="1" vertex="1">
                    <mxGeometry x="340" y="350" width="40" height="40" as="geometry"/>
                </mxCell>
                <mxCell id="28" value="2" style="ellipse;whiteSpace=wrap;html=1;aspect=fixed;fontSize=20;fontColor=#FFFFFF;strokeColor=#007FFF;fillColor=#18141D;" parent="1" vertex="1">
                    <mxGeometry x="340" y="390" width="40" height="40" as="geometry"/>
                </mxCell>
                <mxCell id="29" value="1" style="ellipse;whiteSpace=wrap;html=1;aspect=fixed;fontSize=20;fontColor=#FFFFFF;strokeColor=#80FF00;fillColor=#18141D;" parent="1" vertex="1">
                    <mxGeometry x="340" y="430" width="40" height="40" as="geometry"/>
                </mxCell>
                <mxCell id="35" value="3" style="ellipse;whiteSpace=wrap;html=1;aspect=fixed;fontSize=20;fontColor=#FFFFFF;strokeColor=#FF0000;fillColor=#18141D;" parent="1" vertex="1">
                    <mxGeometry x="340" y="470" width="40" height="40" as="geometry"/>
                </mxCell>
                <mxCell id="36" value="6" style="ellipse;whiteSpace=wrap;html=1;aspect=fixed;fontSize=20;fontColor=#FFFFFF;strokeColor=#FF0000;fillColor=#18141D;" parent="1" vertex="1">
                    <mxGeometry x="340" y="510" width="40" height="40" as="geometry"/>
                </mxCell>
                <mxCell id="37" value="6" style="ellipse;whiteSpace=wrap;html=1;aspect=fixed;fontSize=20;fontColor=#FFFFFF;strokeColor=#80FF00;fillColor=#18141D;" parent="1" vertex="1">
                    <mxGeometry x="340" y="555" width="40" height="40" as="geometry"/>
                </mxCell>
                <mxCell id="38" value="6" style="ellipse;whiteSpace=wrap;html=1;aspect=fixed;fontSize=20;fontColor=#FFFFFF;strokeColor=#007FFF;fillColor=#18141D;" parent="1" vertex="1">
                    <mxGeometry x="340" y="595" width="40" height="40" as="geometry"/>
                </mxCell>
                <mxCell id="39" value="3" style="ellipse;whiteSpace=wrap;html=1;aspect=fixed;fontSize=20;fontColor=#FFFFFF;strokeColor=#80FF00;fillColor=#18141D;" parent="1" vertex="1">
                    <mxGeometry x="340" y="635" width="40" height="40" as="geometry"/>
                </mxCell>
                <mxCell id="40" value="7" style="ellipse;whiteSpace=wrap;html=1;aspect=fixed;fontSize=20;fontColor=#FFFFFF;strokeColor=#FF0000;fillColor=#18141D;" parent="1" vertex="1">
                    <mxGeometry x="340" y="675" width="40" height="40" as="geometry"/>
                </mxCell>
                <mxCell id="41" value="7" style="ellipse;whiteSpace=wrap;html=1;aspect=fixed;fontSize=20;fontColor=#FFFFFF;strokeColor=#80FF00;fillColor=#18141D;" parent="1" vertex="1">
                    <mxGeometry x="340" y="715" width="40" height="40" as="geometry"/>
                </mxCell>
                <mxCell id="42" value="7" style="ellipse;whiteSpace=wrap;html=1;aspect=fixed;fontSize=20;fontColor=#FFFFFF;strokeColor=#007FFF;fillColor=#18141D;" parent="1" vertex="1">
                    <mxGeometry x="340" y="755" width="40" height="40" as="geometry"/>
                </mxCell>
                <mxCell id="43" value="3" style="ellipse;whiteSpace=wrap;html=1;aspect=fixed;fontSize=20;fontColor=#FFFFFF;strokeColor=#007FFF;fillColor=#18141D;" parent="1" vertex="1">
                    <mxGeometry x="340" y="795" width="40" height="40" as="geometry"/>
                </mxCell>
                <mxCell id="44" value="1" style="ellipse;whiteSpace=wrap;html=1;aspect=fixed;fontSize=20;fontColor=#FFFFFF;strokeColor=#007FFF;fillColor=#18141D;" parent="1" vertex="1">
                    <mxGeometry x="340" y="835" width="40" height="40" as="geometry"/>
                </mxCell>
                <mxCell id="45" value="" style="rounded=0;whiteSpace=wrap;html=1;fontSize=20;fontColor=#FFFFFF;fillColor=none;strokeColor=#FF0000;" parent="1" vertex="1">
                    <mxGeometry x="32.5" y="335" width="177.5" height="15" as="geometry"/>
                </mxCell>
                <mxCell id="49" value="" style="rounded=0;whiteSpace=wrap;html=1;fontSize=20;fontColor=#FFFFFF;fillColor=none;strokeColor=#80FF00;" parent="1" vertex="1">
                    <mxGeometry x="32.5" y="365.5" width="177.5" height="15" as="geometry"/>
                </mxCell>
                <mxCell id="50" value="" style="rounded=0;whiteSpace=wrap;html=1;fontSize=20;fontColor=#FFFFFF;fillColor=none;strokeColor=#007FFF;" parent="1" vertex="1">
                    <mxGeometry x="32.5" y="398.5" width="177.5" height="15" as="geometry"/>
                </mxCell>
                <mxCell id="51" value="先序遍历" style="rounded=0;whiteSpace=wrap;html=1;fontSize=20;fontColor=#FFFFFF;fillColor=none;strokeColor=#FF0000;" parent="1" vertex="1">
                    <mxGeometry x="110" y="455" width="110" height="25" as="geometry"/>
                </mxCell>
                <mxCell id="52" value="中序遍历" style="rounded=0;whiteSpace=wrap;html=1;fontSize=20;fontColor=#FFFFFF;fillColor=none;strokeColor=#80FF00;" parent="1" vertex="1">
                    <mxGeometry x="110" y="505" width="110" height="25" as="geometry"/>
                </mxCell>
                <mxCell id="53" value="后序遍历" style="rounded=0;whiteSpace=wrap;html=1;fontSize=20;fontColor=#FFFFFF;fillColor=none;strokeColor=#007FFF;" parent="1" vertex="1">
                    <mxGeometry x="110" y="560" width="110" height="25" as="geometry"/>
                </mxCell>
                <mxCell id="54" value="递归的方式" style="text;html=1;strokeColor=none;fillColor=none;align=center;verticalAlign=middle;whiteSpace=wrap;rounded=0;fontSize=20;fontColor=#FFFFFF;" parent="1" vertex="1">
                    <mxGeometry x="96.5" y="240" width="117" height="30" as="geometry"/>
                </mxCell>
            </root>
        </mxGraphModel>
    </diagram>
</mxfile>